# xmcd
# 
# Track frame offsets:
#     150
#     10581
#     21061
#     34053
#     46125
#     58017
#     73057
#     85091
#     98021
#     110138
#     119613
#     133565
#     143937
#     155398
#     170100
#     182275
#     193208
#     206369
#     217151
#     230126
#     242494
#     255134
#     267932
#     279674
#     289470
#     303941
# 
# Disc length: 4248
# 
# Revision: 2
# Processed by: cddbd v1.5.2PL0 Copyright (c) Steve Scherf et al.
# Submitted via: fre:ac v1.0.17
# 
DISCID=7b10961a
DTITLE=Various Artist - Kent's Cellar Of Soul Vol. 3
DYEAR=2014
DGENRE=Soul
TTITLE0=The Ikettes - Peaches 'N' Cream
TTITLE1=Brenton Wood - Gimme Little Sign
TTITLE2=Cliff Nobles and Co - The Horse
TTITLE3=Gene Latter - Sign On The Dotted Line
TTITLE4=Peggy Scott and Jo Jo Benson - Lover's Holiday
TTITLE5=Jesse James and The Dynamic Four - Believe In Me Baby Pt. 1 
TTITLE6=The Volumes - Gotta Give Her Love
TTITLE7=J.J. Barnes - Baby Please Come Back Home
TTITLE8=The Esquires - And Get Away
TTITLE9=Thelma Jones - The House That Jack Built
TTITLE10=Lowell Fulsom - Tramp
TTITLE11=James Carr - Freedom Train
TTITLE12=The Show Stoppers - What Can A Man Do
TTITLE13=The Ad Libs - Giving Up
TTITLE14=The Platters - With This Ring
TTITLE15=Bill Moss - Sock It To 'Em Soul Brother
TTITLE16=The Maskman and The Agents (with Billy Clark Orchestra) - One Eye Open
TTITLE17=Fred Hughes - Ooh Wee Baby, I Love You
TTITLE18=Carl Henderson - Sharing You
TTITLE19=The Inspirations - Touch Me, Hold Me, Kiss Me
TTITLE20=Clarence Carter - Funky Fever
TTITLE21=Ruby Andrews - Casanova (Your Playing Days Are Over)
TTITLE22=The Showmen - Take It Baby
TTITLE23=Barbara and Brenda - Never Love A Robin
TTITLE24=Marke Jackson and Chris Jackson - I'll Never Forget You
TTITLE25=Bob and Earl - Baby It's Over
EXTD=
EXTT0=
EXTT1=
EXTT2=
EXTT3=
EXTT4=
EXTT5=
EXTT6=
EXTT7=
EXTT8=
EXTT9=
EXTT10=
EXTT11=
EXTT12=
EXTT13=
EXTT14=
EXTT15=
EXTT16=
EXTT17=
EXTT18=
EXTT19=
EXTT20=
EXTT21=
EXTT22=
EXTT23=
EXTT24=
EXTT25=
PLAYORDER=
